<svg width="240" height="64" viewBox="0 0 240 64" fill="none" xmlns="http://www.w3.org/2000/svg">
<mask id="path-1-inside-1_2498_11519" fill="white">
<path fill-rule="evenodd" clip-rule="evenodd" d="M240 42.6071V42.7853H239.996C239.459 54.5181 185.941 63.9998 120 63.9998C54.0593 63.9998 0.541043 54.5181 0.00407636 42.7853H0V42.6071V21.3926H104.44C109.533 21.275 114.727 21.2144 120 21.2144C125.273 21.2144 130.467 21.275 135.56 21.3926H240V42.6071Z"/>
</mask>
<path fill-rule="evenodd" clip-rule="evenodd" d="M240 42.6071V42.7853H239.996C239.459 54.5181 185.941 63.9998 120 63.9998C54.0593 63.9998 0.541043 54.5181 0.00407636 42.7853H0V42.6071V21.3926H104.44C109.533 21.275 114.727 21.2144 120 21.2144C125.273 21.2144 130.467 21.275 135.56 21.3926H240V42.6071Z" fill="url(#paint0_linear_2498_11519)"/>
<path d="M240 42.7853V45.6189H242.834V42.7853H240ZM239.996 42.7853V39.9517H237.289L237.165 42.6557L239.996 42.7853ZM0.00407636 42.7853L2.8347 42.6557L2.71095 39.9517H0.00407636V42.7853ZM0 42.7853H-2.83359V45.6189H0V42.7853ZM0 21.3926V18.559H-2.83359V21.3926H0ZM104.44 21.3926V24.2261H104.473L104.505 24.2254L104.44 21.3926ZM135.56 21.3926L135.495 24.2254L135.527 24.2261H135.56V21.3926ZM240 21.3926H242.834V18.559H240V21.3926ZM237.166 42.6071V42.7853H242.834V42.6071H237.166ZM240 39.9517H239.996V45.6189H240V39.9517ZM237.165 42.6557C237.15 42.9957 236.922 43.757 235.567 44.8968C234.236 46.0153 232.141 47.2161 229.208 48.4323C223.362 50.856 214.794 53.0981 204.031 55.0021C182.548 58.8025 152.856 61.1662 120 61.1662V66.8334C153.084 66.8334 183.122 64.4563 205.018 60.5826C215.944 58.6497 224.977 56.3214 231.378 53.6674C234.568 52.3447 237.257 50.8798 239.214 49.2342C241.146 47.6096 242.708 45.5081 242.827 42.9148L237.165 42.6557ZM120 61.1662C87.1435 61.1662 57.4516 58.8025 35.9693 55.0021C25.2064 53.0981 16.6378 50.856 10.7924 48.4323C7.85912 47.2161 5.76361 46.0153 4.43345 44.8968C3.07812 43.757 2.85026 42.9957 2.8347 42.6557L-2.82655 42.9148C-2.70786 45.5081 -1.14582 47.6096 0.785994 49.2342C2.74297 50.8798 5.43184 52.3447 8.62177 53.6674C15.0227 56.3214 24.0556 58.6497 34.982 60.5826C56.8783 64.4563 86.9158 66.8334 120 66.8334V61.1662ZM0.00407636 39.9517H0V45.6189H0.00407636V39.9517ZM2.83359 42.7853V42.6071H-2.83359V42.7853H2.83359ZM2.83359 42.6071V21.3926H-2.83359V42.6071H2.83359ZM0 24.2261H104.44V18.559H0V24.2261ZM104.505 24.2254C109.577 24.1083 114.749 24.0479 120 24.0479V18.3808C114.705 18.3808 109.49 18.4416 104.375 18.5597L104.505 24.2254ZM120 24.0479C125.251 24.0479 130.423 24.1083 135.495 24.2254L135.625 18.5597C130.51 18.4416 125.295 18.3808 120 18.3808V24.0479ZM135.56 24.2261H240V18.559H135.56V24.2261ZM237.166 21.3926V42.6071H242.834V21.3926H237.166Z" fill="#E5AF31" mask="url(#path-1-inside-1_2498_11519)"/>
<path d="M238.583 21.3927C238.583 22.2907 238.077 23.3764 236.631 24.6359C235.194 25.8883 232.991 27.162 230.02 28.4142C224.089 30.9138 215.421 33.1965 204.604 35.1249C182.993 38.9776 153.08 41.3687 120 41.3687C86.9199 41.3687 57.0071 38.9776 35.3958 35.1249C24.5787 33.1965 15.9108 30.9138 9.98047 28.4142C7.00944 27.162 4.80619 25.8883 3.36864 24.6359C1.923 23.3764 1.41679 22.2907 1.41679 21.3927C1.41679 20.4948 1.923 19.409 3.36864 18.1496C4.80619 16.8972 7.00944 15.6235 9.98047 14.3713C15.9108 11.8717 24.5787 9.589 35.3958 7.66059C57.0071 3.80789 86.9199 1.41679 120 1.41679C153.08 1.41679 182.993 3.80789 204.604 7.66059C215.421 9.589 224.089 11.8717 230.02 14.3713C232.991 15.6235 235.194 16.8972 236.631 18.1496C238.077 19.409 238.583 20.4948 238.583 21.3927Z" fill="#FFE47A" stroke="#E5AF31" stroke-width="2.83359"/>
<rect x="118.588" y="44.9246" width="2.82353" height="14.2618" rx="1.41176" fill="#FFE47A"/>
<rect x="135.529" y="44.9246" width="2.82353" height="14.2618" rx="1.41176" fill="#FFE47A"/>
<rect x="104.471" y="59.1865" width="2.82353" height="14.2618" rx="1.41176" transform="rotate(-180 104.471 59.1865)" fill="#FFE47A"/>
<rect x="152.471" y="44.2117" width="2.82353" height="14.2618" rx="1.41176" fill="#FFE47A"/>
<rect x="87.5298" y="58.4734" width="2.82353" height="14.2618" rx="1.41176" transform="rotate(-180 87.5298 58.4734)" fill="#FFE47A"/>
<rect x="169.412" y="42.7856" width="2.82353" height="14.2618" rx="1.41176" fill="#FFE47A"/>
<rect x="70.5884" y="57.0471" width="2.82353" height="14.2618" rx="1.41176" transform="rotate(-180 70.5884 57.0471)" fill="#FFE47A"/>
<rect x="186.354" y="41.0029" width="2.82353" height="14.2618" rx="1.41176" fill="#FFE47A"/>
<rect x="53.6475" y="55.2644" width="2.82353" height="14.2618" rx="1.41176" transform="rotate(-180 53.6475 55.2644)" fill="#FFE47A"/>
<rect x="203.294" y="38.1504" width="2.82353" height="14.2618" rx="1.41176" fill="#FFE47A"/>
<rect x="36.7061" y="52.4121" width="2.82353" height="14.2618" rx="1.41176" transform="rotate(-180 36.7061 52.4121)" fill="#FFE47A"/>
<rect x="217.412" y="35.2981" width="2.82353" height="14.2618" rx="1.41176" fill="#FFE47A"/>
<rect x="22.5884" y="49.5598" width="2.82353" height="14.2618" rx="1.41176" transform="rotate(-180 22.5884 49.5598)" fill="#FFE47A"/>
<rect x="230.118" y="30.3064" width="2.82353" height="14.2618" rx="1.41176" fill="#FFE47A"/>
<rect x="9.88232" y="44.5684" width="2.82353" height="14.2618" rx="1.41176" transform="rotate(-180 9.88232 44.5684)" fill="#FFE47A"/>
<defs>
<linearGradient id="paint0_linear_2498_11519" x1="240" y1="39.8906" x2="132" y2="39.8906" gradientUnits="userSpaceOnUse">
<stop stop-color="#DC961D"/>
<stop offset="1" stop-color="#F3D54F"/>
</linearGradient>
</defs>
</svg>
